<svg version="1.1" id="Layer_1" xmlns="http://www.w3.org/2000/svg" xmlns:xlink="http://www.w3.org/1999/xlink" x="0px" y="0px"
	 width="100%" viewBox="0 0 500 500" enable-background="new 0 0 500 500" xml:space="preserve">

<!-- 外側の薄い茶色の円 -->
<circle cx="251" cy="251" r="242" fill="#3D2617"/>
<!-- 内側のくり抜き（巣穴の形状を保持） -->
<circle cx="251" cy="251" r="160" fill="#3D2617"/>
<path fill="#FEFDFD" opacity="1.000000" stroke="none" 
	d="
M116.112404,246.953217 
	C110.696564,228.784073 106.070366,210.447754 104.511490,191.474335 
	C102.753952,170.082932 103.371033,148.910065 111.094772,128.533752 
	C117.047966,112.828407 128.658203,108.577415 143.184937,116.714989 
	C155.940643,123.860474 165.260040,134.686920 173.779572,146.223083 
	C188.837646,166.612946 198.733597,189.536789 206.542969,214.212555 
	C206.931808,215.676300 206.985764,216.521454 207.221588,217.312378 
	C213.322479,237.774780 217.340729,258.644440 219.076752,279.917877 
	C219.937851,290.470093 220.274902,301.065063 220.853317,311.719543 
	C240.873535,307.837433 261.302216,307.609680 281.938110,311.907654 
	C280.457275,287.283356 284.171173,263.664093 289.095154,240.185684 
	C290.864227,231.750458 293.005859,223.393372 294.977478,215.000610 
	C298.911469,204.608215 302.431274,194.035355 306.864349,183.860397 
	C316.572479,161.577927 329.166809,141.140854 347.586853,124.856461 
	C351.414948,121.472168 355.721283,118.489357 360.179626,115.984314 
	C372.208984,109.225327 382.943909,112.148857 388.885010,124.630661 
	C392.332428,131.873474 394.656860,139.899185 396.053925,147.825134 
	C401.186707,176.945312 397.323975,205.537323 389.664581,233.775314 
	C388.534149,237.942978 387.179779,242.049911 385.648926,246.821274 
	C374.019470,279.745483 358.451447,309.797882 337.170898,337.169373 
	C351.867126,349.438110 362.310852,364.124878 368.024689,381.997742 
	C362.779938,384.270782 357.691895,387.049469 352.263977,388.731537 
	C325.088806,397.153015 297.060791,400.644501 268.767883,401.825653 
	C233.730927,403.288422 198.944504,400.784454 164.729889,392.722229 
	C155.226318,390.482819 145.965363,387.206421 136.616653,384.329254 
	C135.737930,384.058777 135.029068,383.236389 134.290863,382.013336 
	C139.802307,363.350647 150.812576,349.060547 164.637299,337.165039 
	C159.491364,329.781036 154.577118,323.079926 150.029358,316.138672 
	C135.849747,294.496399 125.314781,271.046600 116.112404,246.953217 
z"/>
<path fill="#2A1911" opacity="1.000000" stroke="none" 
	d="
M115.738892,246.968948 
	C125.314781,271.046600 135.849747,294.496399 150.029358,316.138672 
	C154.577118,323.079926 159.491364,329.781036 164.637299,337.165039 
	C150.812576,349.060547 139.802307,363.350647 134.159119,381.677795 
	C129.164383,380.002808 124.030434,378.547058 119.592873,375.916565 
	C100.298805,364.479370 83.444229,350.536469 75.352028,328.638947 
	C69.563690,312.975677 71.302818,297.763306 78.971542,283.046326 
	C86.946945,267.740784 99.329742,256.758575 113.454132,247.444885 
	C113.968643,247.105621 114.722870,247.129852 115.738892,246.968948 
z"/>
<path fill="#2A1911" opacity="1.000000" stroke="none" 
	d="
M368.416229,381.985535 
	C362.310852,364.124878 351.867126,349.438110 337.170898,337.169373 
	C358.451447,309.797882 374.019470,279.745483 385.627869,247.206177 
	C388.185760,247.809723 390.859924,248.173111 392.724548,249.596786 
	C408.934692,261.973358 422.750977,276.320740 428.301361,296.684937 
	C432.143707,310.782288 429.908539,324.356323 422.896820,337.041931 
	C413.144196,354.686493 398.588715,367.368591 380.844208,376.546783 
	C376.940796,378.565796 372.825500,380.175262 368.416229,381.985535 
z"/>
<path fill="#2A1A12" opacity="1.000000" stroke="none" 
	d="
M294.593689,214.948853 
	C293.005859,223.393372 290.864227,231.750458 289.095154,240.185684 
	C284.171173,263.664093 280.457275,287.283356 281.938110,311.907654 
	C261.302216,307.609680 240.873535,307.837433 220.853317,311.719543 
	C220.274902,301.065063 219.937851,290.470093 219.076752,279.917877 
	C217.340729,258.644440 213.322479,237.774780 207.221588,217.312378 
	C206.985764,216.521454 206.931808,215.676300 206.808655,214.457031 
	C225.335541,213.039368 243.842468,211.378067 262.359924,211.251144 
	C272.967743,211.178436 283.592621,213.599030 294.593689,214.948853 
z"/>
</svg>